<?xml version="1.0" standalone="no"?>
<!DOCTYPE svg PUBLIC "-//W3C//DTD SVG 20010904//EN"
 "http://www.w3.org/TR/2001/REC-SVG-20010904/DTD/svg10.dtd">
<svg version="1.0" xmlns="http://www.w3.org/2000/svg"
 width="480.000000pt" height="480.000000pt" viewBox="0 0 480.000000 480.000000"
 preserveAspectRatio="xMidYMid meet">

<g transform="translate(0.000000,480.000000) scale(0.100000,-0.100000)"
fill="#000000" stroke="none">
<path d="M2330 4084 c-120 -21 -154 -29 -215 -55 -183 -77 -270 -202 -348
-499 -27 -103 -30 -131 -31 -275 -1 -172 3 -206 64 -485 58 -268 73 -375 68
-509 -3 -101 -7 -122 -30 -166 -56 -107 -147 -170 -290 -199 -95 -20 -157 -20
-273 -1 -49 8 -91 13 -93 10 -2 -2 4 -31 14 -66 13 -46 28 -73 56 -101 34 -34
43 -38 90 -38 64 0 189 37 321 96 55 24 102 42 104 40 9 -9 -192 -99 -295
-131 -143 -44 -170 -45 -217 -4 -78 68 -94 139 -104 439 -8 247 -13 277 -60
330 -40 45 -73 60 -131 60 -36 0 -64 -6 -80 -17 -48 -33 -53 -58 -12 -66 42
-9 120 -77 138 -121 21 -55 19 -182 -5 -286 -11 -47 -23 -119 -26 -160 -6 -72
5 -216 20 -252 5 -12 1 -17 -16 -20 -22 -3 -21 -4 11 -37 38 -37 135 -85 220
-107 64 -17 223 -18 305 -3 36 6 73 22 95 38 19 15 62 44 95 65 33 22 96 67
140 101 102 78 124 90 60 31 -49 -45 -155 -127 -256 -196 -57 -39 -132 -136
-154 -200 -43 -122 15 -239 145 -290 117 -47 356 -64 486 -36 84 18 213 81
244 118 l24 31 -27 -5 c-23 -4 -25 -3 -17 13 15 27 31 206 24 263 -3 28 -15
86 -25 128 -37 150 -35 292 6 355 24 35 45 19 46 -36 0 -25 10 -93 22 -149
l22 -104 84 -34 c47 -19 86 -34 87 -34 4 0 17 166 15 189 -4 35 19 22 43 -25
28 -53 27 -191 -2 -337 -29 -142 -27 -311 3 -389 5 -13 2 -15 -15 -11 -20 5
-21 4 -11 -15 18 -35 81 -80 150 -108 53 -22 87 -28 169 -32 326 -14 517 145
458 379 -26 102 -68 153 -238 294 -232 192 -245 204 -150 141 157 -105 305
-233 379 -329 l21 -27 114 10 c249 22 391 65 582 177 118 69 188 139 237 236
41 82 41 82 34 167 -16 218 -36 297 -123 483 -2 5 5 7 17 5 15 -2 26 6 38 31
l18 35 80 1 c115 2 212 43 249 106 59 99 -48 167 -248 156 -144 -7 -250 -48
-301 -116 -29 -38 -25 -172 10 -316 14 -62 29 -156 32 -216 5 -91 3 -117 -16
-177 -62 -204 -331 -337 -614 -303 -155 18 -336 80 -459 157 l-48 30 161 -4
c224 -6 331 18 407 91 58 55 67 81 66 192 -1 120 -17 168 -136 415 -105 216
-140 321 -136 403 3 60 4 62 32 65 28 4 28 3 22 -41 -10 -65 37 -330 64 -360
4 -5 16 22 26 60 23 81 27 310 7 334 -10 13 -3 14 54 11 136 -9 285 40 330
107 71 105 -26 193 -212 195 -107 1 -175 -14 -270 -59 -144 -69 -206 -153
-213 -292 -5 -97 15 -174 84 -322 41 -87 55 -123 36 -94 -5 9 -29 -8 -75 -52
-71 -68 -185 -131 -279 -157 -42 -11 -48 -16 -48 -38 0 -76 59 -190 113 -219
25 -14 30 -12 84 25 77 53 177 147 226 214 l41 54 -23 61 c-50 135 -16 93 40
-50 71 -181 27 -277 -150 -329 -67 -20 -161 -21 -204 -2 -50 20 -105 91 -127
162 -28 91 -43 249 -37 392 3 101 11 151 36 242 85 310 102 389 119 546 14
140 14 177 3 280 -19 175 -49 260 -117 333 -103 111 -310 194 -515 205 -52 2
-105 3 -119 0z m-82 -186 c-5 -17 -279 -226 -296 -227 -9 -1 -11 6 -6 22 22
71 88 144 159 176 22 9 51 22 65 29 35 15 83 15 78 0z m382 -674 c59 -13 75
-21 103 -54 56 -66 86 -204 90 -420 2 -89 0 -104 -13 -102 -108 24 -124 25
-216 8 -52 -10 -101 -16 -109 -12 -13 5 -15 45 -15 281 0 344 -4 337 160 299z
m-320 -14 c19 -19 20 -33 19 -252 0 -128 -3 -251 -7 -272 l-7 -39 -140 -3
c-77 -2 -153 -4 -170 -6 l-30 -3 2 89 c2 94 25 270 48 371 11 48 22 67 51 92
41 36 53 40 147 42 55 1 71 -3 87 -19z m1042 -207 c-37 -48 -58 -88 -67 -133
-12 -56 -27 -72 -20 -21 8 58 50 145 82 171 37 29 39 25 5 -17z m318 -37 c0
-2 -7 -7 -16 -10 -8 -3 -12 -2 -9 4 6 10 25 14 25 6z m505 -468 c-14 -29 -25
-59 -25 -65 0 -7 -4 -13 -10 -13 -22 0 -3 79 27 112 29 33 32 19 8 -34z
m-2225 -362 c0 -54 -16 -102 -37 -110 -23 -9 -26 -1 -15 36 6 18 16 52 22 76
14 55 30 54 30 -2z m507 -73 c17 -8 39 -24 50 -36 18 -22 18 -22 -2 -6 -75 61
-134 64 -203 10 -95 -75 -121 -171 -122 -437 0 -176 -10 -238 -48 -314 -35
-69 -78 -100 -142 -100 -61 0 -147 43 -172 87 -37 63 13 121 206 237 l143 86
5 134 c5 123 8 140 36 200 33 71 106 152 143 159 30 5 65 -2 106 -20z m281
-201 c63 -41 91 -146 92 -352 l1 -105 86 -55 c153 -99 222 -176 207 -234 -14
-56 -119 -123 -175 -111 -30 7 -74 52 -91 94 -33 82 -39 137 -47 371 -8 277
-16 307 -86 369 -36 31 -42 33 -93 29 -47 -4 -60 -10 -84 -37 -29 -33 -35 -33
-18 -1 29 54 147 72 208 32z m470 -749 c-4 -34 -28 -43 -28 -10 0 25 7 37 22
37 5 0 8 -12 6 -27z"/>
<path d="M2610 2951 c-14 -28 -12 -64 5 -87 15 -19 15 -19 30 0 17 23 19 42 5
51 -6 3 -7 17 -4 31 8 30 -20 34 -36 5z"/>
<path d="M2164 2959 c-4 -6 -7 -28 -7 -49 0 -43 8 -60 28 -60 19 0 31 46 17
63 -6 7 -9 23 -5 35 4 16 1 22 -10 22 -9 0 -19 -5 -23 -11z"/>
<path d="M3254 3639 c-36 -10 -91 -67 -100 -104 -3 -14 -4 -56 -2 -93 5 -83
34 -143 130 -269 l70 -92 40 29 c21 16 44 30 50 32 10 4 -25 58 -148 232 -35
50 -42 83 -24 117 17 30 65 23 151 -23 90 -48 109 -45 90 15 -33 100 -168 182
-257 156z"/>
<path d="M1259 3251 c-86 -17 -158 -95 -179 -195 -21 -100 27 -212 114 -265
41 -26 116 -28 151 -5 29 19 62 70 75 115 8 27 7 30 -8 24 -69 -30 -90 -33
-129 -23 -23 5 -53 22 -67 37 -23 24 -25 29 -12 47 13 16 27 19 103 19 75 -1
97 -5 150 -29 35 -16 68 -35 74 -42 6 -8 19 -14 29 -14 15 0 21 -14 30 -68 11
-58 10 -81 -4 -148 -25 -125 -101 -299 -213 -489 -67 -114 -78 -180 -40 -236
26 -39 90 -79 127 -79 92 0 251 59 309 113 28 27 71 103 71 126 0 4 -33 1 -73
-8 -39 -8 -84 -11 -100 -8 -25 7 -27 11 -27 59 0 34 15 95 45 185 49 144 95
312 95 347 0 11 -11 73 -26 136 -14 63 -28 126 -31 140 -6 30 -134 158 -196
194 -89 53 -199 80 -268 67z"/>
<path d="M403 2686 c-71 -23 -167 -83 -214 -133 -79 -84 -98 -178 -53 -264 26
-51 95 -119 149 -147 105 -55 255 -25 339 68 27 30 36 49 36 75 0 43 -6 44
-136 10 -53 -14 -109 -25 -125 -25 -73 0 -139 59 -139 124 0 40 63 99 124 116
75 21 186 9 243 -26 67 -40 95 -102 131 -284 29 -142 77 -290 97 -297 6 -1 25
63 44 143 l34 146 -23 56 c-93 227 -192 367 -302 423 -53 27 -148 34 -205 15z
m-183 -162 c-39 -45 -50 -73 -50 -130 0 -28 -4 -43 -10 -39 -29 18 3 129 53
183 34 37 41 25 7 -14z"/>
</g>
</svg>
