<?xml version="1.0" standalone="no"?>
<!DOCTYPE svg PUBLIC "-//W3C//DTD SVG 20010904//EN"
 "http://www.w3.org/TR/2001/REC-SVG-20010904/DTD/svg10.dtd">
<svg version="1.0" xmlns="http://www.w3.org/2000/svg"
 width="1024.000000pt" height="1024.000000pt" viewBox="0 0 1024.000000 1024.000000"
 preserveAspectRatio="xMidYMid meet">

<g transform="translate(0.000000,1024.000000) scale(0.100000,-0.100000)"
fill="#000000" stroke="none">
<path d="M1528 10033 c6 -2 18 -2 25 0 6 3 1 5 -13 5 -14 0 -19 -2 -12 -5z"/>
<path d="M2808 10033 c6 -2 18 -2 25 0 6 3 1 5 -13 5 -14 0 -19 -2 -12 -5z"/>
<path d="M5283 10033 c15 -2 39 -2 55 0 15 2 2 4 -28 4 -30 0 -43 -2 -27 -4z"/>
<path d="M7673 10033 c64 -2 170 -2 235 0 64 1 11 3 -118 3 -129 0 -182 -2
-117 -3z"/>
<path d="M773 9403 c9 -2 25 -2 35 0 9 3 1 5 -18 5 -19 0 -27 -2 -17 -5z"/>
<path d="M868 9403 c17 -2 47 -2 65 0 17 2 3 4 -33 4 -36 0 -50 -2 -32 -4z"/>
<path d="M3288 9403 c46 -2 118 -2 160 0 42 1 5 3 -83 3 -88 0 -123 -2 -77 -3z"/>
<path d="M4428 9403 c12 -2 32 -2 45 0 12 2 2 4 -23 4 -25 0 -35 -2 -22 -4z"/>
<path d="M4577 9403 c18 -2 50 -2 70 0 21 2 7 4 -32 4 -38 0 -55 -2 -38 -4z"/>
<path d="M9528 9403 c6 -2 18 -2 25 0 6 3 1 5 -13 5 -14 0 -19 -2 -12 -5z"/>
<path d="M9693 9403 c9 -2 25 -2 35 0 9 3 1 5 -18 5 -19 0 -27 -2 -17 -5z"/>
<path d="M1823 9120 c0 -47 2 -66 4 -42 2 23 2 61 0 85 -2 23 -4 4 -4 -43z"/>
<path d="M8083 8915 c0 -22 2 -30 4 -17 2 12 2 30 0 40 -3 9 -5 -1 -4 -23z"/>
<path d="M87 8783 c51 -2 135 -2 185 0 51 1 10 3 -92 3 -102 0 -143 -2 -93 -3z"/>
<path d="M1353 8783 c43 -2 110 -2 150 0 40 1 5 3 -78 3 -82 0 -115 -2 -72 -3z"/>
<path d="M3798 8783 c56 -2 148 -2 205 0 56 1 10 3 -103 3 -113 0 -159 -2
-102 -3z"/>
<path d="M5168 8783 c50 -2 134 -2 185 0 50 1 9 3 -93 3 -102 0 -143 -2 -92
-3z"/>
<path d="M6478 8783 c23 -2 61 -2 85 0 23 2 4 4 -43 4 -47 0 -66 -2 -42 -4z"/>
<path d="M7573 8783 c54 -2 139 -2 190 0 51 1 7 3 -98 3 -104 0 -146 -2 -92
-3z"/>
<path d="M8888 8783 c46 -2 118 -2 160 0 42 1 5 3 -83 3 -88 0 -123 -2 -77 -3z"/>
<path d="M1203 8460 c0 -25 2 -35 4 -22 2 12 2 32 0 45 -2 12 -4 2 -4 -23z"/>
<path d="M6813 8405 c0 -27 2 -38 4 -22 2 15 2 37 0 50 -2 12 -4 0 -4 -28z"/>
<path d="M683 8163 c9 -2 23 -2 30 0 6 3 -1 5 -18 5 -16 0 -22 -2 -12 -5z"/>
<path d="M878 8163 c23 -2 61 -2 85 0 23 2 4 4 -43 4 -47 0 -66 -2 -42 -4z"/>
<path d="M1993 8163 c42 -2 112 -2 155 0 42 1 7 3 -78 3 -85 0 -120 -2 -77 -3z"/>
<path d="M3443 8163 c9 -2 23 -2 30 0 6 3 -1 5 -18 5 -16 0 -22 -2 -12 -5z"/>
<path d="M4413 8163 c9 -2 25 -2 35 0 9 3 1 5 -18 5 -19 0 -27 -2 -17 -5z"/>
<path d="M4588 8163 c17 -2 47 -2 65 0 17 2 3 4 -33 4 -36 0 -50 -2 -32 -4z"/>
<path d="M5728 8163 c28 -2 76 -2 105 0 28 2 5 3 -53 3 -58 0 -81 -1 -52 -3z"/>
<path d="M8358 8163 c23 -2 61 -2 85 0 23 2 4 4 -43 4 -47 0 -66 -2 -42 -4z"/>
<path d="M98 7543 c7 -3 16 -2 19 1 4 3 -2 6 -13 5 -11 0 -14 -3 -6 -6z"/>
<path d="M398 7543 c7 -3 16 -2 19 1 4 3 -2 6 -13 5 -11 0 -14 -3 -6 -6z"/>
<path d="M1418 7543 c12 -2 32 -2 45 0 12 2 2 4 -23 4 -25 0 -35 -2 -22 -4z"/>
<path d="M2698 7543 c12 -2 32 -2 45 0 12 2 2 4 -23 4 -25 0 -35 -2 -22 -4z"/>
<path d="M6473 7543 c26 -2 67 -2 90 0 23 2 2 3 -48 3 -49 0 -68 -1 -42 -3z"/>
<path d="M8913 7543 c42 -2 112 -2 155 0 42 1 7 3 -78 3 -85 0 -120 -2 -77 -3z"/>
<path d="M7338 6913 c7 -3 16 -2 19 1 4 3 -2 6 -13 5 -11 0 -14 -3 -6 -6z"/>
<path d="M8855 6748 c-302 -5 -580 -7 -617 -5 l-68 3 0 -68 0 -68 -60 0 -60 0
0 -75 0 -75 60 0 60 0 0 64 0 64 268 7 c222 7 943 1 947 -8 0 -1 -1 -30 -3
-64 l-4 -63 -61 0 c-73 0 -72 -10 1 -11 l52 -2 -2 -141 c-1 -83 -3 -110 -5
-65 l-4 76 -54 1 -55 0 0 -96 0 -97 51 4 c28 1 55 -1 60 -6 11 -11 -425 -23
-813 -23 -130 0 -239 -4 -242 -9 -3 -4 -90 -11 -193 -15 -103 -3 -223 -9 -265
-12 l-78 -7 0 72 0 71 -70 0 -71 0 7 -60 7 -59 -184 5 c-101 3 -189 7 -196 9
-6 2 -13 21 -15 42 l-3 38 -690 8 c-379 4 -758 6 -842 4 -147 -3 -152 -2 -156
18 -4 18 -4 18 -6 -2 -1 -23 -2 -23 -158 -22 -87 1 -224 4 -306 8 -81 3 -147
4 -147 1 0 -3 -558 -5 -1240 -5 l-1239 0 -4 30 -4 30 -1 -32 -2 -33 -172 0
-173 0 3 -60 4 -60 -69 -2 c-37 -1 -102 -2 -143 -2 -41 -1 -108 -2 -147 -4
l-73 -2 0 -71 0 -72 -73 6 c-39 3 -103 3 -141 0 l-68 -6 7 -70 7 -70 -72 7
-72 6 4 -60 4 -60 -37 0 c-20 0 -51 -3 -69 -6 l-32 -7 5 -63 5 -64 -57 7 c-35
4 -59 12 -65 22 -8 13 -11 12 -16 -9 -4 -15 -13 -25 -25 -26 -11 -1 -36 -2
-56 -3 l-36 -1 -7 -57 c-9 -75 -16 -82 -69 -72 -23 4 -47 8 -54 9 -7 0 -13
-42 -18 -130 l-8 -129 -62 6 -63 6 3 -78 4 -78 61 1 60 0 0 -65 0 -66 70 5 70
5 0 -68 0 -69 65 0 65 0 0 -65 0 -64 65 6 65 6 0 -51 c0 -66 16 -82 84 -82
l52 0 2 -62 c2 -34 5 -64 7 -66 3 -3 60 -4 129 -3 l124 2 7 -66 7 -66 70 7
c60 6 70 5 66 -8 -11 -28 24 -56 72 -59 40 -3 46 -7 56 -34 l11 -30 141 4 142
3 0 -60 0 -59 90 -7 c49 -4 125 -4 169 -1 72 7 79 6 84 -11 4 -17 5 -17 6 -2
1 17 41 18 617 20 539 3 617 1 625 -12 5 -10 8 -11 9 -2 0 18 586 18 593 0 4
-10 6 -10 6 0 1 9 71 12 317 12 l316 0 -3 -44 c-2 -24 -1 -42 4 -39 4 2 7 20
7 39 0 19 3 34 8 35 4 0 523 2 1154 3 631 1 1149 4 1152 7 3 3 2 29 -3 58 l-8
53 36 -6 c20 -3 108 -8 196 -12 l160 -7 -3 -73 -4 -73 54 5 c29 3 61 7 71 9
15 3 17 -5 17 -65 l0 -67 71 5 71 5 -4 -69 -3 -69 68 -3 c58 -3 67 -5 67 -22
0 -26 8 -28 68 -21 l52 7 0 -70 0 -71 259 3 c143 1 262 -1 264 -5 3 -5 167 -7
364 -5 l359 2 -10 65 c-5 36 -6 68 -2 72 3 4 26 6 50 4 38 -1 44 1 50 21 3 13
6 114 6 226 l0 202 23 0 c93 2 200 9 204 14 3 3 8 61 11 128 l5 123 61 0 61 0
-3 45 c-1 25 -4 55 -7 68 -5 21 -3 22 65 22 l70 0 0 66 0 67 64 -6 63 -6 7 46
c8 60 8 404 -1 671 l-6 212 -64 0 c-70 0 -72 3 -53 70 9 32 12 35 47 34 44 -1
73 5 73 17 0 4 -30 9 -67 11 l-68 3 -3 43 c-4 49 -16 57 -67 48 -28 -6 -35
-12 -35 -29 0 -30 10 -41 40 -45 39 -6 35 -10 -13 -13 l-45 -4 5 32 c3 18 3
43 -1 57 -6 24 -10 26 -68 26 l-61 0 6 148 5 147 -46 2 c-26 1 -83 5 -127 10
l-80 8 3 190 c1 105 5 218 8 253 6 62 5 63 -18 58 -12 -3 -40 -8 -61 -11 l-39
-6 7 68 c3 37 8 78 11 91 2 12 1 21 -3 20 -5 -1 -255 -5 -558 -10z m-5608
-1223 c2 -492 -1 -582 -16 -556 -5 7 -61 11 -154 12 -80 1 -163 5 -183 8 l-37
6 2 83 2 84 -58 -4 -58 -4 -3 -81 -3 -82 -52 -6 c-63 -7 -515 9 -539 20 -17 7
-17 9 2 32 22 28 26 73 10 104 -7 13 -21 19 -45 19 -58 0 -65 -7 -65 -62 0
-42 -3 -51 -21 -55 -14 -4 -19 -12 -16 -24 4 -14 -2 -21 -21 -27 -26 -7 -313
-7 -849 -1 l-252 3 -7 56 -6 56 -37 -5 c-30 -3 -33 -5 -16 -13 l20 -8 -20 4
c-11 2 -27 7 -35 10 -12 5 -16 -1 -18 -20 -3 -33 15 -49 57 -51 55 -2 63 -23
9 -23 -26 0 -53 -3 -62 -6 -14 -5 -16 3 -16 54 l0 61 58 3 57 3 0 78 0 78 40
-7 c22 -3 48 -10 57 -15 33 -18 38 -10 38 61 l0 70 43 2 c23 1 56 2 72 3 l30
1 -3 62 -4 62 66 0 66 0 0 65 0 65 70 0 70 0 0 54 c0 30 4 57 8 60 5 3 65 8
135 12 l127 7 0 63 0 64 29 -6 c16 -3 84 0 152 7 68 7 151 14 184 15 l60 2 0
63 0 64 565 0 564 0 3 -520z m1277 410 c9 -157 10 -934 2 -943 -8 -7 -388 -20
-418 -13 -15 3 -16 6 -4 30 7 14 19 43 26 65 15 47 6 56 -62 56 -57 0 -68 -15
-68 -89 l0 -51 -248 0 c-204 0 -251 -3 -269 -15 -12 -8 -27 -13 -35 -10 -8 3
-20 -8 -30 -27 -25 -50 -29 -68 -15 -68 8 0 7 -4 -3 -10 -25 -16 -31 4 -24 73
l7 67 33 0 c39 0 49 21 39 80 -7 39 -8 40 -46 40 l-39 0 -3 258 c-2 309 1 642
8 659 3 10 129 12 573 10 l570 -2 6 -110z m1320 -295 c-4 -867 -3 -807 -20
-785 -11 14 -18 16 -21 8 -3 -7 -20 -13 -38 -13 l-34 0 -3 71 -3 71 -207 -2
c-204 -1 -206 -1 -201 20 3 12 23 30 43 40 21 11 40 25 42 32 3 7 30 15 64 18
44 4 18 8 -106 13 -91 4 -192 3 -225 -2 -33 -4 -50 -9 -37 -10 12 0 22 -5 22
-11 0 -5 8 -10 17 -10 9 0 35 -19 58 -43 l41 -43 -131 -2 c-71 -1 -178 -5
-237 -8 -108 -7 -108 -7 -109 -33 -1 -14 -3 -35 -4 -46 -1 -11 -2 -30 -3 -42
-2 -21 -7 -23 -52 -23 l-50 0 0 80 c0 73 2 80 20 80 18 0 20 7 20 65 0 50 -4
66 -17 73 -15 9 -18 46 -26 327 -5 174 -6 378 -2 452 l7 136 597 -4 597 -4 -2
-405z m1144 403 l270 -6 13 -46 c7 -25 11 -52 10 -58 -1 -9 14 -13 49 -13 l50
0 0 -460 0 -460 -80 0 c-73 0 -80 2 -80 20 0 11 -4 20 -10 20 -6 0 -10 27 -10
61 l0 60 -52 -3 -53 -3 -9 -82 -8 -83 -173 0 c-176 0 -225 8 -225 34 0 11 -9
14 -33 11 l-33 -4 4 58 4 58 -43 6 c-59 8 -69 -4 -69 -74 0 -61 -11 -73 -39
-46 -11 10 -13 8 -8 -11 3 -14 1 -25 -6 -27 -7 -2 -102 -6 -211 -10 -110 -3
-201 -7 -203 -9 -2 -2 -7 -87 -10 -190 l-6 -186 -29 0 -28 0 0 174 c0 190 8
305 21 285 10 -16 44 12 52 42 4 16 0 19 -35 19 l-41 0 4 460 4 460 175 3
c407 6 582 7 838 0z m379 -65 c-3 -8 -6 -5 -6 6 -1 11 2 17 5 13 3 -3 4 -12 1
-19z m1348 -11 c160 -1 430 -1 600 1 l310 3 3 -32 c2 -17 -1 -36 -6 -41 -7 -7
-241 -10 -661 -9 l-651 2 0 -55 0 -56 -132 3 -133 2 -3 63 -3 62 136 0 135 0
0 35 0 36 58 -6 c31 -3 188 -7 347 -8z m-1071 -44 c4 -4 36 -6 71 -5 l64 4 3
-64 3 -63 58 -3 57 -3 0 -37 c0 -20 3 -53 6 -73 l6 -36 118 5 117 5 6 -39 c4
-22 7 -54 7 -72 l0 -34 73 4 c52 2 72 -1 73 -10 1 -6 2 -37 3 -69 l1 -56 393
4 c245 2 395 8 399 14 4 6 8 39 8 74 l0 64 53 -7 c28 -3 85 -6 125 -6 l72 0 0
-200 0 -199 -57 -3 -58 -3 0 -60 0 -60 -60 -8 c-33 -4 -67 -4 -75 -1 -8 3
-121 6 -250 6 -129 0 -223 3 -207 5 24 4 27 9 27 43 0 38 1 39 44 45 24 4 58
4 76 0 32 -7 120 13 120 27 0 4 -225 8 -500 8 l-500 0 0 -66 c0 -45 -5 -70
-15 -80 -8 -9 -15 -11 -15 -5 0 6 -12 10 -27 10 -24 -2 -25 -2 -5 -6 15 -3 22
-11 22 -29 0 -13 5 -24 10 -24 6 0 10 -13 10 -29 0 -33 -14 -41 -69 -41 l-38
0 -7 238 c-4 131 -5 249 -1 264 7 26 6 26 -60 30 -37 1 -69 0 -71 -3 -2 -4 -4
-114 -4 -244 -1 -131 -4 -251 -7 -267 -5 -27 -8 -28 -64 -28 l-59 0 -2 203
c-1 111 -3 234 -4 272 -5 221 -5 596 1 605 7 11 118 14 129 3z m256 -33 c0
-16 -4 -30 -10 -30 -5 0 -10 5 -10 10 0 6 -19 19 -42 30 l-43 19 53 0 c51 1
52 1 52 -29z m1808 -137 c-15 -2 -42 -2 -60 0 -18 2 -6 4 27 4 33 0 48 -2 33
-4z m60 -99 l91 -7 3 -66 3 -66 63 1 62 1 0 -199 0 -198 -50 0 -50 0 -2 68
c-1 51 -3 36 -11 -63 -5 -71 -14 -133 -19 -136 -15 -10 -195 -20 -223 -13 -24
6 -25 10 -25 75 l0 69 -56 0 -55 0 0 68 c0 37 -1 87 -2 112 -1 25 0 87 1 138
l2 92 55 0 55 0 0 65 0 65 33 0 c19 0 75 -3 125 -6z m-7651 -650 c-3 -3 -12
-4 -19 -1 -8 3 -5 6 6 6 11 1 17 -2 13 -5z m-967 -204 l0 -60 -65 0 -65 0 0
60 0 60 65 0 65 0 0 -60z m6389 -72 c1 -5 -3 -8 -9 -8 -5 0 -10 12 -9 28 0 24
1 25 9 7 5 -11 9 -23 9 -27z m-6365 -29 c-2 -4 16 -9 41 -11 25 -2 46 1 46 7
1 5 5 -8 8 -30 4 -22 5 -43 3 -47 -2 -5 -28 -8 -58 -8 l-54 0 0 63 c0 41 3 57
9 47 6 -8 8 -17 5 -21z m3533 25 c-3 -3 -12 -4 -19 -1 -8 3 -5 6 6 6 11 1 17
-2 13 -5z m5151 -106 c-3 -7 -22 -14 -44 -16 -26 -2 -36 0 -29 6 9 9 24 13 68
21 5 0 7 -5 5 -11z m-8300 -45 c0 -10 -2 -35 -4 -55 l-6 -38 -64 0 -64 0 0 55
0 55 68 0 c58 0 69 -3 70 -17z m8172 -7 c0 -13 3 -38 6 -55 l7 -31 -67 0 c-73
0 -72 -1 -60 73 l7 37 53 0 c50 0 54 -2 54 -24z m-223 -78 c-3 -8 -6 -5 -6 6
-1 11 2 17 5 13 3 -3 4 -12 1 -19z m-157 -28 c-20 -4 -26 -8 -14 -9 17 -1 20
-6 16 -33 -3 -18 -12 -39 -20 -48 -14 -13 -4 -16 104 -21 65 -4 138 -7 162 -8
l42 -1 0 -59 0 -58 -67 -6 c-38 -4 -337 -7 -665 -7 l-597 0 -3 58 -3 57 -38
-3 c-21 -2 -56 -1 -79 3 -40 7 -40 7 -34 44 3 20 13 42 23 48 9 7 14 16 10 20
-16 15 -47 -31 -47 -70 0 -32 -3 -38 -16 -33 -9 3 -31 6 -50 6 l-34 0 0 53 0
54 128 6 c70 3 302 6 517 7 214 1 392 3 394 6 2 2 72 3 155 3 93 -1 138 -4
116 -9z m-7394 -12 c4 -4 8 -31 10 -60 2 -29 2 -48 -1 -43 -3 6 -31 9 -65 7
-60 -4 -60 -4 -61 25 l-2 28 -4 -27 -4 -28 -135 0 -134 0 0 56 0 55 194 -3
c107 -2 198 -6 202 -10z m5684 -123 l0 -125 -65 0 -65 0 0 43 c0 23 3 79 7
125 l6 82 58 0 59 0 0 -125z m-5520 -15 c0 -16 5 -30 10 -30 6 0 10 -9 10 -19
0 -15 8 -21 33 -24 17 -2 -21 -5 -85 -5 l-118 -2 0 49 0 50 43 4 c108 9 107
10 107 -23z m5248 -32 l-3 -63 -63 2 c-35 1 -65 3 -67 5 -1 2 0 29 2 61 l5 57
65 0 64 0 -3 -62z m-5125 -45 c-7 -2 -19 -2 -25 0 -7 3 -2 5 12 5 14 0 19 -2
13 -5z m1005 -63 c1 -25 -1 -50 -5 -56 -6 -8 -148 -10 -500 -6 l-493 5 0 53 0
54 498 -2 497 -3 3 -45z m1272 -5 l0 -55 -177 -1 c-98 -1 -354 -2 -570 -3
l-391 -1 -6 48 c-4 26 -4 52 -1 57 4 7 216 10 576 10 l569 -1 0 -54z m1306 42
c3 -3 2 -26 -1 -51 l-7 -46 -584 0 -584 0 0 56 0 56 585 -5 c322 -2 588 -7
591 -10z m1326 -19 c34 -38 35 -54 6 -62 -13 -4 -283 -9 -600 -13 l-578 -6 0
25 c0 14 -3 40 -6 57 l-6 31 577 0 578 0 29 -32z m671 -135 c-7 -2 -21 -2 -30
0 -10 3 -4 5 12 5 17 0 24 -2 18 -5z m228 -135 l7 -28 -64 0 c-44 0 -64 4 -64
13 0 6 -3 21 -6 32 -5 19 -1 20 57 15 58 -5 63 -7 70 -32z m65 -88 c51 0 54
-1 54 -25 0 -24 2 -25 75 -25 41 0 74 -3 74 -7 -6 -36 1 -40 51 -30 57 11 65
24 18 30 -18 3 -6 3 27 0 33 -3 101 -6 150 -7 50 -2 96 -4 103 -5 20 -2 14
-21 -8 -21 -11 0 -20 -4 -20 -10 0 -5 11 -10 24 -10 14 0 28 -4 31 -10 8 -13
114 -13 245 1 264 26 300 32 300 43 1 6 7 -2 15 -19 l13 -30 1 41 c1 28 6 44
17 48 22 8 72 8 77 -1 3 -5 8 -45 11 -90 l7 -83 -539 0 c-296 0 -567 3 -601 6
l-61 7 0 63 c0 51 3 63 18 67 15 4 15 5 0 6 -9 0 -20 -3 -23 -9 -7 -11 -67
-13 -102 -4 -21 6 -23 12 -22 63 1 31 4 46 6 34 4 -21 10 -23 59 -23z m257
-77 c-7 -2 -21 -2 -30 0 -10 3 -4 5 12 5 17 0 24 -2 18 -5z"/>
<path d="M2158 5923 c12 -2 30 -2 40 0 9 3 -1 5 -23 4 -22 0 -30 -2 -17 -4z"/>
<path d="M1448 5103 c18 -2 45 -2 60 0 15 2 0 4 -33 4 -33 0 -45 -2 -27 -4z"/>
<path d="M3503 5440 c0 -25 2 -35 4 -22 2 12 2 32 0 45 -2 12 -4 2 -4 -23z"/>
<path d="M7100 5736 c0 -77 11 -85 88 -70 25 5 31 12 37 41 11 62 1 73 -66 73
l-59 0 0 -44z"/>
<path d="M8050 5555 l0 -45 51 0 c27 0 48 4 45 9 -3 4 -17 6 -31 3 -18 -3 -25
0 -25 11 0 22 -21 67 -32 67 -4 0 -8 -20 -8 -45z"/>
<path d="M7660 5500 c0 -12 57 -12 85 0 15 6 6 9 -32 9 -29 1 -53 -3 -53 -9z"/>
<path d="M8966 5124 c-4 -9 -3 -38 0 -65 l7 -49 57 0 c51 0 58 2 64 23 10 36
7 82 -6 95 -19 19 -115 16 -122 -4z"/>
<path d="M1672 4410 c0 -19 2 -27 5 -17 2 9 2 25 0 35 -3 9 -5 1 -5 -18z"/>
<path d="M8418 3733 c12 -2 32 -2 45 0 12 2 2 4 -23 4 -25 0 -35 -2 -22 -4z"/>
<path d="M8323 3713 c-7 -3 -13 -10 -13 -16 0 -9 23 -11 77 -9 63 3 74 6 58
15 -27 15 -59 17 -67 3 -5 -8 -12 -8 -25 0 -10 6 -24 9 -30 7z"/>
<path d="M7910 6395 l0 -75 64 0 c75 0 78 4 69 90 l-6 60 -63 0 -64 0 0 -75z"/>
<path d="M7770 6296 c0 -18 3 -47 6 -63 6 -29 9 -31 72 -39 l67 -9 6 -50 c3
-27 7 -40 7 -29 1 12 5 35 8 52 5 24 2 31 -11 34 -14 2 -18 15 -21 62 -1 36
-7 62 -16 67 -7 5 -37 9 -65 9 l-53 0 0 -34z"/>
<path d="M2448 3917 c-3 -19 -2 -25 4 -19 6 6 8 18 6 28 -3 14 -5 12 -10 -9z"/>
<path d="M738 3903 c34 -2 90 -2 125 0 34 2 6 3 -63 3 -69 0 -97 -1 -62 -3z"/>
<path d="M328 3273 c6 -2 18 -2 25 0 6 3 1 5 -13 5 -14 0 -19 -2 -12 -5z"/>
<path d="M27 2013 c18 -2 48 -2 66 0 17 2 3 4 -33 4 -36 0 -50 -2 -33 -4z"/>
<path d="M1003 1383 c9 -2 23 -2 30 0 6 3 -1 5 -18 5 -16 0 -22 -2 -12 -5z"/>
<path d="M7778 753 c12 -2 32 -2 45 0 12 2 2 4 -23 4 -25 0 -35 -2 -22 -4z"/>
<path d="M873 123 c15 -2 37 -2 50 0 12 2 0 4 -28 4 -27 0 -38 -2 -22 -4z"/>
<path d="M3418 123 c12 -2 32 -2 45 0 12 2 2 4 -23 4 -25 0 -35 -2 -22 -4z"/>
<path d="M9663 123 c9 -2 23 -2 30 0 6 3 -1 5 -18 5 -16 0 -22 -2 -12 -5z"/>
</g>
</svg>
