<?xml version="1.0" standalone="no"?>
<!DOCTYPE svg PUBLIC "-//W3C//DTD SVG 20010904//EN"
 "http://www.w3.org/TR/2001/REC-SVG-20010904/DTD/svg10.dtd">
<svg version="1.0" xmlns="http://www.w3.org/2000/svg"
 width="1024.000000pt" height="1024.000000pt" viewBox="0 0 1024.000000 1024.000000"
 preserveAspectRatio="xMidYMid meet">

<g transform="translate(0.000000,1024.000000) scale(0.100000,-0.100000)"
fill="#000000" stroke="none">
<path d="M6126 9118 c-3 -13 -6 -51 -6 -85 l0 -63 59 0 c32 0 73 -3 90 -6 l32
-7 -3 -81 -3 -80 -42 -9 c-24 -4 -62 -4 -85 0 -36 7 -43 13 -46 33 -1 14 -5
35 -8 48 l-5 23 -36 -28 c-20 -15 -39 -27 -42 -26 -11 3 -20 39 -20 80 -1 35
2 42 22 46 12 2 -24 5 -80 6 -56 0 -108 -2 -116 -5 -13 -5 -15 -21 -10 -94 l6
-88 -81 1 c-44 0 -87 -4 -94 -10 -7 -6 -39 -13 -72 -16 -32 -3 -61 -8 -63 -11
-3 -3 -2 -38 3 -78 l9 -73 152 0 153 0 0 91 0 91 123 6 c68 4 131 9 139 12 14
6 16 -7 14 -92 l-3 -98 -41 -3 c-29 -2 -42 1 -42 10 0 8 -5 6 -11 -4 -8 -15
-24 -18 -89 -18 l-78 0 5 -101 6 -101 -79 4 -79 3 0 -90 0 -90 -77 -3 -78 -3
0 -67 c0 -110 2 -108 -91 -103 l-79 3 0 -91 0 -91 -55 0 -55 0 0 -74 c0 -83
-2 -86 -76 -86 l-44 0 0 -75 0 -75 -37 0 c-21 0 -82 -3 -135 -7 l-97 -6 -3 89
-3 89 -60 0 c-68 0 -72 -6 -74 -105 l-1 -55 -630 4 -630 3 0 -88 0 -87 -381 6
-382 7 8 -81 7 -82 -224 7 c-211 6 -220 5 -169 -9 30 -9 56 -17 57 -18 1 -1 3
-29 6 -62 l4 -60 -101 -2 c-55 -1 -196 -2 -313 -3 l-212 -1 0 -64 0 -65 -110
0 -110 0 0 -79 0 -80 -200 6 -200 6 0 -81 0 -80 83 -6 c45 -3 136 -7 202 -9
l120 -2 0 80 0 80 45 0 c25 1 73 2 108 3 l62 2 0 73 c0 39 4 67 8 61 4 -7 68
-14 157 -19 184 -11 192 -11 341 0 100 6 120 10 120 24 0 9 1 42 2 73 l2 57
230 -5 230 -4 0 82 0 81 194 -7 c106 -4 248 -4 315 0 l121 7 0 79 0 79 1075
-2 1075 -2 0 -84 0 -84 103 3 102 3 3 -83 3 -83 117 2 c64 1 142 1 172 0 30 0
72 2 93 5 l37 6 0 -112 0 -111 83 1 c109 2 104 3 110 -19 5 -19 21 -20 87 -6
46 10 60 -7 60 -74 -1 -50 -19 -99 -32 -86 -3 3 -16 1 -29 -4 -13 -5 -18 -10
-11 -10 7 -1 12 -14 12 -31 0 -20 5 -30 15 -30 8 0 15 -4 15 -10 0 -5 -7 -10
-15 -10 -10 0 -15 -10 -15 -34 0 -32 -3 -35 -32 -39 -18 -2 9 -5 60 -5 l92 -2
0 -32 0 -33 19 24 c16 21 24 23 70 19 28 -3 51 -1 51 3 0 5 11 9 24 9 18 0 26
7 29 23 2 12 2 -25 -1 -83 -2 -58 -5 -106 -6 -106 0 -1 -88 -5 -193 -9 l-193
-7 0 50 c0 64 -18 101 -45 92 -41 -15 -125 9 -125 35 0 9 -9 15 -22 15 -45 0
-49 -11 -40 -88 5 -47 5 -75 -2 -82 -5 -5 -45 -10 -88 -10 l-78 0 0 -90 0 -90
-100 0 c-60 0 -100 4 -100 10 0 6 -9 10 -20 10 -11 0 -20 -4 -20 -10 0 -6 -53
-10 -139 -10 -124 0 -140 -2 -144 -17 -3 -10 -5 23 -5 72 0 50 2 84 5 78 2 -7
13 -13 24 -13 12 0 19 -7 19 -20 0 -17 7 -20 40 -20 33 0 40 -3 40 -20 0 -19
7 -20 180 -20 l180 0 0 58 0 59 -51 11 c-29 7 -173 15 -324 18 l-272 6 -7
-184 c-4 -101 -13 -209 -21 -239 -22 -87 -43 -155 -44 -141 -2 20 -21 13 -21
-8 0 -11 -4 -20 -10 -20 -6 0 -10 -27 -10 -60 l0 -59 49 -7 49 -6 7 -175 c4
-96 5 -198 2 -225 -4 -28 -4 -70 0 -94 l6 -44 73 0 74 0 0 95 0 95 76 0 76 0
-3 88 -4 87 199 -3 198 -3 -3 89 -4 88 310 -2 310 -1 -3 -89 -2 -89 209 0 209
1 6 -36 c3 -19 6 -62 6 -95 l0 -60 197 7 c109 4 204 5 212 3 10 -4 12 -25 9
-95 l-4 -90 230 2 c127 1 254 -1 281 -5 l50 -8 1 -70 c1 -39 5 -74 10 -78 5
-5 142 -11 304 -14 l295 -6 3 -84 3 -85 539 2 538 1 5 -30 c3 -16 2 -61 -1
-99 l-5 -69 -113 5 -112 5 -5 -31 c-2 -17 -2 -57 1 -88 l5 -58 -189 -1 c-626
-4 -1306 -20 -1241 -30 50 -8 87 -31 87 -56 0 -7 4 -13 9 -13 11 0 23 -62 14
-71 -5 -4 -117 -9 -250 -11 -134 -1 -243 -6 -243 -10 0 -5 -146 -8 -325 -8
l-325 0 6 -92 7 -93 -234 0 -234 0 -3 98 -3 97 -86 0 -86 0 5 180 5 180 -94 0
-94 0 3 95 3 95 -87 0 -88 0 0 89 0 88 -581 1 c-422 0 -584 3 -593 12 -8 8
-11 223 -11 805 1 538 -3 796 -10 798 -5 1 -40 1 -76 -1 l-66 -4 -6 -111 c-4
-62 -7 -256 -8 -432 0 -176 -3 -314 -6 -307 -6 15 -95 16 -110 1 -19 -19 -26
185 -19 535 l8 328 -79 -7 c-43 -4 -81 -9 -84 -11 -3 -2 -9 -126 -13 -276 -4
-151 -12 -274 -17 -276 -5 -2 -9 -13 -9 -24 0 -16 -3 -18 -14 -9 -10 9 -16 8
-26 -4 -17 -20 -30 -10 -30 26 0 21 -5 29 -18 29 -16 0 -18 -8 -14 -62 1 -35
-1 -103 -6 -153 -8 -78 -10 -58 -11 160 -3 349 -11 589 -19 595 -4 3 -48 4
-99 2 l-92 -3 -5 -32 c-3 -18 -7 -58 -9 -89 -4 -58 -4 -58 25 -58 l28 0 1
-267 c1 -148 2 -426 3 -620 1 -194 4 -355 7 -358 3 -3 39 -7 80 -9 l74 -4 -3
264 c-2 146 -2 270 1 277 3 9 27 11 83 7 l79 -5 -4 -357 -4 -356 82 -4 81 -3
0 365 0 365 38 1 c20 0 51 2 67 5 l30 4 7 -85 c3 -47 6 -210 7 -362 l1 -277
73 -3 72 -3 10 -84 c6 -46 15 -86 20 -87 6 -1 40 -5 78 -9 l67 -7 2 -126 c1
-70 3 -109 5 -87 l4 40 82 0 82 0 -4 -113 c-3 -100 -2 -112 13 -106 44 17 65
-82 24 -117 -13 -10 -32 -19 -43 -20 -11 0 -2 -5 20 -11 22 -5 55 -6 74 -3
l34 6 -5 -95 c-3 -53 -2 -96 3 -96 4 0 10 12 12 27 l4 28 2 -27 c1 -28 2 -28
66 -28 55 0 65 -3 66 -17 3 -41 -3 -169 -7 -185 -5 -16 3 -18 74 -18 l80 0 6
-32 c3 -18 6 -59 7 -90 l2 -58 75 0 74 0 -3 -101 -4 -102 78 2 c71 2 77 1 77
-18 0 -28 17 -36 80 -36 54 0 55 -1 58 -30 1 -16 5 -49 8 -73 l5 -42 73 0 73
0 7 -46 c3 -26 6 -66 6 -90 l0 -44 84 0 84 0 6 -31 c3 -17 6 -62 6 -100 l0
-69 85 0 86 0 -3 -87 -3 -88 -91 3 -91 3 -6 -38 c-4 -21 -7 -67 -7 -102 l0
-63 31 6 c17 3 58 6 89 6 l58 0 6 38 c3 20 8 58 12 85 l6 47 74 0 74 0 0 -72
c0 -40 -3 -84 -7 -97 -6 -23 -8 -23 -85 -18 l-78 5 0 -58 c0 -92 -3 -90 116
-89 57 0 108 -2 114 -6 5 -3 10 -27 10 -53 0 -89 2 -90 83 -84 40 3 75 9 78
15 10 15 25 -23 28 -68 1 -22 9 -47 17 -56 13 -15 21 -15 77 -3 94 20 97 19
97 -20 0 -19 -5 -47 -10 -62 l-10 -27 122 7 c190 10 176 3 174 94 l-1 77 -47
3 c-25 2 -52 9 -58 17 -20 24 -23 153 -6 244 9 46 16 110 16 142 0 49 -3 59
-17 60 -25 2 -22 2 -84 -5 l-57 -7 -3 124 -4 124 -37 41 c-20 22 -42 59 -48
80 -15 58 -27 64 -111 56 l-72 -7 7 95 c9 119 5 128 -48 128 l-42 0 4 84 4 83
-38 6 c-22 4 -51 7 -66 7 l-28 0 0 208 0 207 140 -9 c154 -10 170 -6 170 44
l0 28 55 -13 c30 -7 57 -10 60 -7 3 3 8 -9 11 -26 6 -32 7 -32 68 -32 33 0 66
-4 73 -8 7 -4 13 -37 15 -77 l3 -70 77 -3 c70 -3 77 -5 80 -25 l3 -21 363 -2
362 -2 0 41 c0 23 -4 80 -9 127 -5 47 -13 130 -16 186 l-7 101 64 -9 c34 -5
134 -7 221 -6 181 3 174 -1 162 102 l-6 62 220 0 221 0 0 -347 c0 -190 3 -414
7 -497 l6 -152 93 0 94 0 -7 -138 c-3 -76 -3 -158 1 -183 l7 -45 79 1 79 0 -2
-105 c-1 -76 3 -125 17 -177 l19 -72 96 -3 96 -3 3 -32 c2 -18 -1 -40 -7 -51
-19 -35 13 -53 66 -37 26 8 31 0 35 -65 l4 -45 69 -5 c96 -7 115 -19 115 -75
l0 -44 79 2 c44 1 83 6 88 10 4 5 9 45 10 90 2 45 0 76 -3 70 -3 -8 -24 -13
-47 -13 -23 -1 -53 -7 -67 -15 -14 -8 -28 -14 -32 -15 -5 0 -8 436 -8 969 l0
968 46 7 c26 3 61 6 79 6 l32 0 6 143 c4 78 7 244 7 370 l0 227 25 0 26 0 -1
609 -1 609 -25 5 c-32 6 -35 -1 -33 -80 0 -38 1 -74 0 -82 -1 -11 -19 -13 -88
-9 l-88 4 1 -184 1 -183 -91 2 -91 2 -3 -92 -3 -91 -69 0 -69 0 -4 53 c-2 28
-4 -15 -5 -96 l-2 -148 -87 3 -88 3 0 110 c-1 61 -2 142 -3 182 l-2 71 -80 4
-80 3 0 -187 0 -188 -100 1 -100 1 0 95 0 95 -115 -7 -115 -7 0 102 c0 91 2
102 19 107 15 4 19 18 24 91 4 48 9 97 11 109 3 13 8 71 11 130 6 100 9 130
22 176 4 16 -11 17 -210 17 -118 0 -229 -3 -246 -6 l-31 -6 0 -84 0 -84 -200
0 -200 0 0 95 0 95 -81 -6 c-64 -6 -83 -4 -90 7 -5 8 -9 51 -9 97 l0 82 -195
0 -195 0 0 84 0 83 -46 7 c-26 3 -79 6 -119 6 -81 0 -84 3 -85 85 -1 84 -2 85
-100 85 l-87 0 -7 46 c-3 26 -6 59 -6 73 l0 26 -97 0 -98 0 -9 53 c-6 30 -15
52 -22 52 -15 0 -23 38 -27 120 l-2 55 -92 0 -93 0 0 81 0 82 -31 6 c-17 3
-57 6 -88 6 l-56 0 2 338 c0 185 -1 530 -4 765 l-6 428 -29 6 c-36 7 -52 41
-45 101 5 49 11 57 49 66 l27 6 3 -92 3 -93 30 -3 c16 -2 53 -1 82 3 l53 6 0
92 c0 51 -3 129 -7 175 l-6 82 -242 0 -243 0 -6 -22z m-126 -563 c0 -15 -6
-25 -14 -25 -8 0 -22 -7 -30 -16 -15 -14 -16 -13 -16 9 0 14 -6 28 -12 30 -20
8 12 27 45 27 22 0 27 -4 27 -25z m2845 -2705 l0 -95 -172 -2 -173 -3 0 95 0
94 143 4 c78 2 156 3 172 3 l30 -1 0 -95z m-4488 43 c-3 -10 -5 -4 -5 12 0 17
2 24 5 18 2 -7 2 -21 0 -30z m5137 -694 c3 -2 6 -38 7 -79 l2 -75 -80 -3 -80
-3 -7 62 c-12 120 -18 112 74 107 44 -3 82 -7 84 -9z m-1396 -1354 l-3 -120
-50 0 c-27 1 -102 7 -165 15 -63 8 -160 14 -215 14 l-101 -1 -10 33 c-6 19 -7
39 -2 48 5 9 6 32 2 51 -6 35 -15 40 -59 36 -11 -1 -30 4 -42 10 -35 19 -53
-8 -55 -83 -1 -54 -2 -56 -5 -18 -3 25 -2 64 2 87 l6 41 162 -5 c89 -3 167
-10 172 -15 6 -5 15 -39 22 -76 l12 -67 -2 80 -2 80 53 -3 c29 -1 60 2 70 8
10 6 59 9 115 8 l98 -3 -3 -120z m1252 -284 c8 -2 20 -3 25 -2 6 1 30 3 55 4
l45 2 3 -105 c1 -57 7 -107 13 -110 5 -4 39 -2 75 3 36 5 68 6 71 3 4 -4 8
-127 10 -275 l3 -269 -22 -6 c-13 -3 -49 -6 -80 -6 l-58 0 0 183 0 182 -78 -3
-79 -3 -6 128 c-8 157 -7 325 1 298 4 -11 14 -22 22 -24z m370 -741 c0 -11 5
-20 10 -20 6 0 10 5 10 10 0 18 57 11 65 -7 3 -10 9 -66 12 -125 l6 -106 -44
-7 c-24 -4 -62 -5 -84 -3 l-40 3 1 50 c0 28 2 83 4 122 4 64 6 72 22 67 13 -4
18 0 18 15 0 12 5 21 10 21 6 0 10 -9 10 -20z m-2640 -479 c0 -66 -3 -69 -75
-71 -93 -4 -95 -3 -95 34 0 48 28 78 81 86 92 15 89 17 89 -49z"/>
<path d="M6010 8760 c0 -11 2 -20 4 -20 2 0 6 9 9 20 3 11 1 20 -4 20 -5 0 -9
-9 -9 -20z"/>
<path d="M6023 8680 c0 -25 2 -35 4 -22 2 12 2 32 0 45 -2 12 -4 2 -4 -23z"/>
<path d="M5402 8593 l-43 -4 7 -90 7 -89 -85 0 c-47 0 -87 -2 -89 -4 -2 -2 -3
-43 -1 -90 l3 -86 85 0 84 0 0 91 0 91 78 -3 77 -4 3 98 3 97 -43 -2 c-24 -1
-62 -3 -86 -5z"/>
<path d="M5016 8162 c-7 -73 -9 -81 -29 -84 -20 -3 -22 -10 -25 -75 -2 -51 -7
-73 -16 -73 -9 0 -11 -13 -5 -52 4 -29 8 -74 8 -100 1 -48 1 -48 36 -48 l35 0
0 75 c0 81 9 95 71 110 24 6 27 13 33 67 6 50 10 59 24 53 13 -5 14 -4 5 6
-10 10 -8 15 8 23 17 9 21 22 23 83 2 82 6 78 -102 89 l-59 7 -7 -81z"/>
<path d="M935 6651 c-6 -5 -23 -11 -40 -13 -19 -2 -31 -9 -33 -21 -7 -33 8
-86 29 -106 19 -18 18 -18 -72 -24 -51 -4 -129 -7 -174 -7 -55 0 -86 -4 -93
-13 -6 -7 -14 -48 -18 -91 l-7 -78 -96 4 -96 3 4 -92 3 -92 -158 -3 -159 -3 3
-72 c3 -62 1 -73 -12 -73 -14 0 -16 -16 -16 -108 l0 -108 59 6 c33 3 63 9 67
12 3 4 6 43 6 87 l-1 81 110 0 109 0 0 90 0 90 101 0 100 0 -2 88 -2 87 89 7
c49 4 96 9 104 10 12 3 14 18 12 81 l-4 77 201 0 201 0 0 89 0 88 -77 7 c-102
8 -127 8 -138 -3z"/>
<path d="M5198 6633 c23 -2 61 -2 85 0 23 2 4 4 -43 4 -47 0 -66 -2 -42 -4z"/>
<path d="M10180 6565 l0 -75 -90 0 -91 0 3 -92 3 -93 85 -3 c46 -2 87 -7 90
-12 3 -5 4 36 2 92 l-4 101 31 -5 31 -5 0 84 0 83 -30 0 -30 0 0 -75z"/>
<path d="M5100 6472 c0 -9 -5 -80 -10 -157 -5 -77 -10 -296 -11 -487 l-2 -348
-24 0 c-22 0 -53 -20 -53 -33 0 -3 18 -8 39 -12 29 -5 41 -12 45 -28 3 -12 6
-95 6 -184 0 -92 4 -164 10 -168 5 -3 39 -9 75 -14 l65 -7 0 551 c0 524 5 735
19 733 3 0 18 0 34 1 27 1 27 2 27 66 0 58 -2 65 -20 65 -11 0 -20 4 -20 9 0
6 -19 12 -42 15 -137 16 -138 16 -138 -2z"/>
<path d="M2297 6453 c3 -10 14 -36 23 -58 10 -22 20 -53 24 -68 l7 -28 -106 7
-105 7 0 -91 0 -90 -107 -7 c-156 -10 -204 -12 -244 -14 -42 -1 -53 -22 -38
-71 5 -17 13 -43 18 -59 l8 -28 -321 -8 c-507 -14 -457 -10 -450 -32 20 -63
27 -73 50 -73 17 0 24 -6 24 -20 0 -13 7 -20 20 -20 38 0 20 -17 -31 -28 -31
-7 -141 -12 -285 -12 -254 0 -255 0 -235 -53 7 -17 18 -27 31 -27 13 0 20 -7
20 -20 0 -13 7 -20 20 -20 11 0 20 -4 20 -9 0 -20 250 -27 1258 -34 l512 -4 0
83 0 84 80 0 80 0 0 93 0 92 92 -2 c51 -1 95 -3 98 -3 3 0 -2 -5 -10 -10 -10
-6 -11 -10 -2 -10 6 0 12 -9 12 -20 0 -13 7 -20 20 -20 17 0 20 -7 20 -44 0
-39 3 -45 23 -48 12 -2 -29 -4 -92 -6 -63 -1 -117 -5 -120 -7 -2 -3 158 -5
357 -5 283 0 362 -3 362 -12 0 -10 25 -13 89 -13 85 0 118 -8 95 -23 -13 -8
-14 -42 -2 -42 4 0 8 -6 8 -13 0 -7 5 -25 12 -39 12 -25 14 -26 168 -34 l155
-9 0 -188 0 -187 75 0 75 0 0 187 c0 104 4 351 9 551 l9 362 -81 0 -82 0 -1
-67 c0 -65 -15 -178 -18 -139 -1 17 -21 18 -548 15 l-548 -4 -3 93 c-2 54 -7
92 -13 92 -6 0 -8 4 -4 9 3 6 -7 6 -27 0 -18 -5 -51 -9 -73 -8 l-40 1 33 8
c41 9 53 20 24 20 -13 0 -22 6 -22 15 0 18 16 20 23 3 4 -10 8 -9 17 2 9 11
13 12 17 3 6 -17 31 -16 49 1 16 17 16 97 0 108 -6 4 -106 8 -223 8 -198 0
-212 -1 -206 -17z m176 -150 c-7 -2 -19 -2 -25 0 -7 3 -2 5 12 5 14 0 19 -2
13 -5z m-80 -265 c3 -46 2 -87 -2 -91 -4 -4 -52 -6 -107 -5 l-99 3 -3 88 -3
87 104 0 104 0 6 -82z m-525 -85 c-16 -2 -40 -2 -55 0 -16 2 -3 4 27 4 30 0
43 -2 28 -4z m962 -123 c0 -5 -4 -10 -10 -10 -5 0 -10 5 -10 10 0 6 5 10 10
10 6 0 10 -4 10 -10z"/>
<path d="M5840 6456 c0 -13 11 -16 60 -16 33 0 60 4 60 10 0 6 -13 10 -29 10
-16 0 -43 3 -60 6 -24 5 -31 3 -31 -10z"/>
<path d="M6168 6443 c6 -2 18 -2 25 0 6 3 1 5 -13 5 -14 0 -19 -2 -12 -5z"/>
<path d="M5720 6420 c0 -13 -7 -20 -20 -20 -13 0 -20 -7 -20 -20 0 -17 7 -20
40 -20 l40 0 0 40 c0 33 -3 40 -20 40 -13 0 -20 -7 -20 -20z"/>
<path d="M9804 6264 c3 -26 6 -74 7 -108 0 -34 3 -55 6 -48 6 15 183 17 183 2
0 -5 5 -10 12 -10 9 0 9 3 0 12 -8 8 -12 46 -12 105 l0 93 -101 0 -102 0 7
-46z"/>
<path d="M10183 6180 c0 -25 2 -35 4 -22 2 12 2 32 0 45 -2 12 -4 2 -4 -23z"/>
<path d="M9760 5964 c-25 -8 -57 -14 -71 -14 -24 0 -27 -4 -33 -52 -3 -29 -6
-70 -6 -92 l0 -39 -80 5 -80 5 0 -81 c0 -45 4 -87 9 -94 5 -8 38 -16 84 -19
61 -5 77 -9 77 -21 0 -13 2 -14 13 -3 10 11 10 14 0 18 -9 3 -13 32 -13 93 l0
89 78 3 77 3 3 99 c1 55 -1 103 -5 107 -4 4 -28 1 -53 -7z"/>
<path d="M2580 5810 c0 -5 5 -10 11 -10 5 0 7 5 4 10 -3 6 -8 10 -11 10 -2 0
-4 -4 -4 -10z"/>
<path d="M9878 5743 c7 -3 16 -2 19 1 4 3 -2 6 -13 5 -11 0 -14 -3 -6 -6z"/>
<path d="M1 5644 c0 -11 3 -14 6 -6 3 7 2 16 -1 19 -3 4 -6 -2 -5 -13z"/>
<path d="M3322 5615 c0 -16 2 -22 5 -12 2 9 2 23 0 30 -3 6 -5 -1 -5 -18z"/>
<path d="M0 5414 c0 -122 3 -183 10 -179 6 3 13 -1 16 -10 6 -14 20 -15 111
-9 l105 7 -7 -69 c-4 -38 -9 -76 -11 -86 -4 -14 7 -17 72 -23 42 -4 117 -5
166 -1 l88 7 0 -96 0 -95 98 3 c53 1 100 7 104 12 4 6 8 48 8 95 l0 85 -100
-3 -99 -4 -3 89 -3 88 -119 -3 c-108 -3 -118 -2 -112 13 3 9 9 35 12 58 3 23
7 57 10 75 l5 32 -100 0 c-76 0 -99 3 -96 13 2 6 6 51 10 100 l6 87 -85 0 -86
0 0 -186z"/>
<path d="M2554 5362 c3 -5 23 -17 45 -27 46 -20 57 -41 40 -79 -12 -25 -22
-30 -79 -39 -20 -4 -19 -5 7 -6 32 -1 33 -2 28 -43 -3 -24 -7 -78 -11 -120 -3
-43 -10 -78 -14 -78 -5 0 -6 16 -3 36 l6 37 -54 -6 c-30 -3 -63 -7 -74 -9 -19
-3 -20 3 -23 88 l-3 91 -233 1 -233 1 -6 -44 c-4 -24 -4 -103 0 -176 l6 -132
-24 6 c-13 4 -57 7 -96 7 l-73 0 0 85 0 85 -110 0 -110 0 0 -52 c0 -29 3 -69
6 -90 l6 -36 74 5 74 6 1 -44 c1 -24 3 -65 4 -91 l2 -48 -52 0 c-29 0 -67 3
-84 6 l-31 7 0 83 0 84 -307 1 c-393 1 -467 -1 -474 -13 -6 -9 -20 -160 -16
-165 4 -3 181 -2 400 4 l207 5 0 -91 0 -91 95 0 95 0 0 -94 0 -93 62 -7 c34
-3 63 -8 65 -10 2 -2 -5 -38 -15 -79 l-20 -75 22 -6 c33 -9 489 -7 504 2 20
13 26 131 9 171 -8 20 -17 29 -21 22 -4 -6 -4 -11 1 -11 4 0 1 -5 -7 -10 -8
-5 -51 -10 -95 -10 l-80 0 4 85 3 85 -81 0 c-97 0 -101 4 -101 118 l0 79 83
-5 c117 -6 116 -5 109 -107 l-5 -85 82 0 81 0 0 64 c0 35 3 78 6 95 6 28 10
31 44 31 55 0 100 18 100 41 0 27 40 104 61 117 30 19 121 25 182 12 53 -11
57 -13 63 -45 3 -19 4 -55 2 -80 l-3 -46 75 3 75 3 8 120 c4 65 9 120 11 122
1 2 17 0 34 -3 21 -4 34 -15 42 -34 9 -23 20 -29 56 -35 l44 -6 0 -83 0 -83
53 -7 c28 -3 64 -6 79 -6 l27 0 3 98 3 97 173 0 173 0 4 83 5 82 -90 0 c-50 0
-90 3 -90 8 0 4 -40 6 -90 4 l-90 -3 0 87 0 87 -165 -7 c-91 -3 -176 -4 -190
0 -24 6 -25 9 -25 85 l0 79 -86 0 c-47 0 -83 -4 -80 -8z m322 -246 c3 -13 4
-36 2 -52 l-3 -28 -28 25 c-25 21 -27 27 -18 52 13 33 39 35 47 3z m-610 -108
c-3 -13 -5 -52 -5 -87 l-1 -64 -72 7 c-39 3 -74 9 -76 11 -3 3 -7 38 -10 80
l-5 75 87 0 c84 0 86 -1 82 -22z m-485 -557 c13 -104 18 -119 42 -124 12 -2
-13 -5 -56 -6 l-78 -1 3 87 3 88 30 6 c46 10 50 6 56 -50z"/>
<path d="M4760 4553 c0 -76 -3 -162 -6 -190 l-7 -53 77 0 76 0 0 -102 c0 -79
3 -99 12 -90 7 7 39 12 75 12 l63 0 0 -150 0 -151 65 7 65 7 0 -48 0 -47 -52
2 c-29 2 -57 2 -63 2 -5 -1 -311 -4 -678 -6 l-668 -5 3 97 3 97 -400 3 c-220
1 -406 3 -414 5 -11 1 -14 21 -12 88 2 75 0 87 -16 94 -10 3 -169 9 -355 12
l-336 6 -7 -44 c-4 -24 -5 -64 -3 -88 l3 -44 265 -5 c146 -2 266 -5 267 -6 7
-6 25 -386 20 -401 -6 -15 -18 -17 -86 -14 l-80 4 6 -193 6 -194 -81 4 c-61 2
-83 0 -87 -10 -3 -8 -5 -56 -5 -108 l0 -94 -80 0 -80 0 0 -127 0 -128 -37 0
c-41 0 -38 5 -62 -115 -6 -31 -12 -190 -14 -362 l-2 -308 53 -2 c119 -4 106
-11 112 62 l5 65 50 -4 c28 -1 58 -8 69 -13 17 -9 18 -5 15 79 l-4 88 64 3
c53 3 64 6 68 23 3 10 15 21 27 23 11 2 39 8 61 13 l40 8 0 83 0 83 119 -7
119 -7 -5 113 c-4 76 -10 116 -19 125 -8 8 -45 15 -89 17 -68 3 -75 1 -78 -17
-12 -79 -25 -127 -38 -139 -15 -15 -54 -10 -66 8 -14 21 -20 0 -27 -96 -1 -8
-37 -15 -122 -23 l-66 -6 4 213 c3 161 7 212 16 209 7 -2 41 -6 75 -9 l64 -4
-2 78 c-3 120 -5 114 32 103 18 -5 54 -9 80 -9 l47 0 3 103 3 102 76 3 76 3 7
81 c4 45 8 84 10 85 5 5 477 8 523 4 l42 -5 6 -65 c3 -36 7 -73 8 -81 2 -12
23 -16 110 -18 l107 -3 0 88 0 88 96 -3 96 -3 -4 94 -3 95 155 9 c172 9 210 9
860 6 l456 -3 -4 -40 c-2 -23 -1 -60 2 -84 l7 -43 54 5 c36 3 55 1 55 -6 0 -7
32 -12 83 -14 l82 -3 3 -91 3 -92 31 -6 c17 -3 55 -6 84 -6 l54 0 0 -101 0
-101 88 7 87 7 0 -80 c0 -45 3 -84 7 -87 9 -9 56 -9 181 0 l100 7 -7 -91 -7
-92 99 2 100 1 6 37 c3 20 6 55 6 78 l0 42 -92 3 -93 3 4 93 3 92 -122 0
c-107 0 -120 2 -107 15 12 11 37 113 37 148 0 4 -46 7 -102 7 -57 0 -120 3
-140 6 l-38 7 0 87 c0 101 1 100 -102 100 l-58 0 0 95 0 95 -75 0 c-71 0 -75
1 -81 24 -3 13 -4 54 -1 90 l5 66 -68 0 c-38 0 -74 2 -82 5 -10 4 -12 29 -10
110 l4 104 -74 3 -73 3 -3 85 c-2 52 -8 87 -15 92 -7 4 -34 8 -62 8 l-50 0 3
90 3 90 -87 0 -87 0 5 185 5 185 -84 0 -83 0 0 -137z m-2463 -2065 c-2 -13 -4
-5 -4 17 -1 22 1 32 4 23 2 -10 2 -28 0 -40z m10 -95 c-2 -16 -4 -5 -4 22 0
28 2 40 4 28 2 -13 2 -35 0 -50z m105 -172 c2 -17 1 -28 -4 -25 -8 5 -12 54
-4 54 2 0 6 -13 8 -29z"/>
<path d="M2283 4603 c-6 -43 -14 -85 -17 -94 -6 -13 1 -18 31 -22 21 -4 59 -7
85 -7 44 0 47 2 53 31 9 39 -4 152 -19 161 -6 4 -36 8 -66 8 l-56 0 -11 -77z"/>
<path d="M3823 3913 c15 -2 37 -2 50 0 12 2 0 4 -28 4 -27 0 -38 -2 -22 -4z"/>
<path d="M3291 3088 l4 -93 -107 3 -108 4 0 -92 0 -92 -80 4 c-78 3 -81 2 -87
-21 -7 -28 9 -137 20 -133 4 1 39 2 77 2 l70 0 0 75 c0 89 -1 88 134 83 l86
-3 0 82 0 81 94 -5 c91 -6 94 -5 101 17 4 12 4 57 0 101 l-7 79 -100 0 -100 0
3 -92z"/>
</g>
</svg>
